<svg viewBox="0 0 32 32" xmlns="http://www.w3.org/2000/svg"><g><path d="m.607228 31.3928c-.809637-.8097-.809637-2.1223 0-2.932l27.853572-27.85357c.8096-.809637 2.1223-.809637 2.932 0 .8096.80964.8096 2.12232 0 2.93196l-27.85362 27.85361c-.80963.8096-2.12231.8096-2.931952 0z"/><path d="m.607231.607228c.809639-.809637 2.122319-.809637 2.931959 0l27.85361 27.853572c.8096.8096.8096 2.1223 0 2.932-.8097.8096-2.1223.8096-2.932 0l-27.853569-27.85362c-.809637-.80963-.809637-2.12231 0-2.931952z"/></g></svg>