<svg viewBox="0 0 33 32" xmlns="http://www.w3.org/2000/svg" xmlns:xlink="http://www.w3.org/1999/xlink"><mask id="a" fill="#fff"><path clip-rule="evenodd" d="m1.29974 13.0486c-1.732986 1.5857-1.732988 4.3164 0 5.9021l13.10546 11.9917c2.5664 2.3484 6.7002.5277 6.7002-2.951v-.8884l4.1961 3.8394c2.5664 2.3484 6.7002.5277 6.7002-2.951v-23.98351c0-3.478719-4.1338-5.2994-6.7002-2.95104l-4.1961 3.83946v-.88842c0-3.478719-4.1338-5.2994-6.7002-2.95104z" fill="#fff" fill-rule="evenodd"/></mask><path d="m1.29974 18.9507 2.70026-2.9511zm0-5.9021 2.70026 2.951zm13.10546 17.8938 2.7002-2.951zm6.7002-3.8394 2.7003-2.9511-6.7003-6.1308v9.0819zm4.1961 3.8394 2.7002-2.951zm0-29.88555 2.7002 2.95104v-.00001zm-4.1961 3.83946h-4v9.08189l6.7003-6.13085zm-6.7002-3.83946-2.7003-2.95103zm-10.4052 14.94275-5.40052-5.902c-3.46597 3.1714-3.46598 8.6327 0 11.8041zm13.1054 11.9918-13.1054-11.9918-5.40052 5.9021 13.10542 11.9918zm0 0c0 .0189-.0013.0294-.0018.0327s-.0005.002.001-.0028c.0014-.0048.0037-.0108.0069-.0174.0032-.0065.0066-.0122.0098-.0168.0064-.0093.0099-.0115.0068-.009-.0016.0013-.0043.0034-.0084.0059s-.0089.0051-.0143.0074c-.0053.0023-.0104.0042-.015.0055s-.008.002-.01.0022c-.004.0006 0-.0005.0112.0011.0055.0008.012.0021.019.0042.007.002.013.0044.0175.0065s.0055.003.0027.0012c-.0027-.0019-.0114-.0079-.0254-.0207l-5.4005 5.9021c5.1329 4.6967 13.4005 1.0553 13.4005-5.9021zm0-.8884v.8884h8v-.8884zm10.8963.8884-4.196-3.8395-5.4005 5.9021 4.196 3.8395zm0 0c0 .0189-.0013.0294-.0018.0327s-.0006.002.0009-.0028.0038-.0108.007-.0174c.0032-.0065.0066-.0122.0098-.0168.0064-.0093.0099-.0115.0068-.009-.0016.0013-.0044.0034-.0084.0059-.0041.0025-.0089.0051-.0143.0074-.0053.0023-.0104.0042-.015.0055s-.0081.002-.01.0022c-.004.0006 0-.0005.0111.0011.0056.0008.0121.0021.0191.0042.007.002.013.0044.0175.0065s.0055.003.0027.0012c-.0027-.0019-.0114-.0079-.0254-.0207l-5.4005 5.9021c5.1329 4.6967 13.4005 1.0553 13.4005-5.9021zm0-23.98351v23.98351h8v-23.98351zm0-.00001c.014-.01277.0227-.01884.0254-.02068.0028-.00185.0018-.00095-.0027.00118-.0045.0021-.0105.00447-.0175.00655-.007.00205-.0135.0034-.0191.00418-.0111.00157-.0151.00046-.0111.00103.0019.00029.0054.00093.01.00225.0046.00133.0097.00315.015.0055.0054.00234.0102.0049.0143.00741.004.0025.0068.00459.0084.00585.0031.00254-.0004.00038-.0068-.00894-.0032-.00464-.0066-.01034-.0098-.01685-.0032-.0066-.0055-.01262-.007-.01734-.0015-.00479-.0014-.00609-.0009-.00281.0005.00326.0018.01375.0018.03268h8c0-6.95742-8.2676-10.59881-13.4005-5.90207zm-4.196 3.83947 4.196-3.83946-5.4005-5.90207-4.196 3.83946zm-6.7003-3.83946v.88842h8v-.88842zm0 0c.014-.01278.0227-.01885.0254-.02069.0028-.00185.0018-.00095-.0027.00118-.0045.0021-.0105.00447-.0175.00655-.007.00205-.0135.0034-.019.00418-.0112.00157-.0152.00046-.0112.00103.0019.00029.0054.00093.01.00225.0046.00133.0097.00315.015.0055.0054.00234.0102.0049.0143.00741.0041.0025.0068.00459.0084.00585.0031.00254-.0004.00038-.0068-.00894-.0032-.00464-.0066-.01034-.0098-.01685-.0032-.0066-.0055-.01262-.0069-.01734-.0015-.00479-.0015-.00609-.001-.00281.0005.00326.0018.01375.0018.03268h8c0-6.95742-8.2675-10.5988-13.4005-5.90207zm-13.1054 11.99171 13.1055-11.99171-5.4006-5.90207-13.10542 11.99178z" fill="#fff" mask="url(#a)"/></svg>